<?xml version="1.0" encoding="UTF-8" standalone="no"?>
<!-- Created with Inkscape (http://www.inkscape.org/) -->

<svg
   width="12.087957mm"
   height="12.088797mm"
   viewBox="0 0 12.087957 12.088797"
   version="1.1"
   id="svg1"
   xml:space="preserve"
   xmlns="http://www.w3.org/2000/svg"
   xmlns:svg="http://www.w3.org/2000/svg"><defs
     id="defs1" /><g
     id="layer1"
     transform="translate(541.5536,-347.55387)"><path
       style="fill:#e77502;fill-opacity:1;stroke:#e77502;stroke-width:0.0886285;stroke-opacity:1"
       d="m -536.24785,359.57495 c -2.47219,-0.16982 -4.09405,-1.16721 -4.82984,-2.97017 -0.48872,-1.19756 -0.56981,-2.93778 -0.20242,-4.34419 0.17421,-0.66693 0.46723,-1.34818 0.8241,-1.91598 l 0.13965,-0.22219 v -0.68648 -0.68648 l -0.0698,-0.0289 c -0.11139,-0.0461 -0.25092,-0.21523 -0.29214,-0.35402 -0.0458,-0.15411 -0.0458,-0.19349 -2.6e-4,-0.34686 0.093,-0.31307 0.44259,-0.49546 0.75246,-0.39254 0.50552,0.16791 0.55295,0.85964 0.0759,1.10635 l -0.0675,0.0349 v 0.41416 0.41417 l 0.24036,-0.24569 c 0.9146,-0.93488 2.05595,-1.51294 3.35916,-1.70131 0.38892,-0.0562 1.22909,-0.0562 1.61802,0 1.29323,0.18693 2.41377,0.75029 3.32997,1.67416 l 0.26955,0.27181 v -0.41378 -0.41378 l -0.0879,-0.0452 c -0.36316,-0.18679 -0.41961,-0.72632 -0.10341,-0.98835 0.17421,-0.14436 0.45381,-0.17487 0.65622,-0.0716 0.12665,0.0646 0.25599,0.22226 0.29777,0.36294 0.0437,0.14712 0.0434,0.18715 -0.003,0.34425 -0.0288,0.098 -0.0665,0.15576 -0.16365,0.25048 -0.0695,0.0677 -0.14232,0.12311 -0.16194,0.12311 -0.0311,0 -0.0357,0.088 -0.0357,0.68932 v 0.68933 l 0.14483,0.23043 c 0.40963,0.65174 0.75247,1.51801 0.9084,2.29528 0.23534,1.1731 0.16744,2.59509 -0.17357,3.6347 -0.55266,1.68485 -1.83841,2.74853 -3.79801,3.142 -0.76283,0.15316 -1.75658,0.20994 -2.62749,0.15012 z m 1.43043,-0.3971 c 3.03933,-0.22466 4.684,-1.73104 4.88896,-4.47787 0.12575,-1.68517 -0.32074,-3.31328 -1.24485,-4.53932 -0.35642,-0.47288 -0.90916,-0.99062 -1.39294,-1.30476 -1.76892,-1.14861 -4.16118,-1.14125 -5.90931,0.0182 -1.06674,0.70751 -1.86481,1.77474 -2.28737,3.05883 -0.25739,0.78219 -0.37298,1.6082 -0.3429,2.45049 0.0989,2.76948 1.5486,4.35496 4.33037,4.73594 0.58377,0.08 1.35573,0.10302 1.95804,0.0585 z m -3.36502,-1.41703 c -0.31105,-0.0525 -0.54454,-0.12795 -0.83246,-0.26892 -1.52646,-0.7474 -2.12802,-2.5456 -1.35762,-4.0582 0.42342,-0.83133 1.18114,-1.39557 2.13146,-1.5872 0.19606,-0.0395 0.38996,-0.0426 2.73188,-0.0426 2.79092,0 2.66973,-0.006 3.15137,0.15459 1.48877,0.49621 2.34184,2.06705 1.95034,3.59136 -0.21884,0.85204 -0.79247,1.55041 -1.59505,1.94188 -0.30329,0.14794 -0.51121,0.21406 -0.84513,0.26878 -0.2879,0.0472 -5.05557,0.0474 -5.33479,2.6e-4 z m 5.51717,-0.43936 c 1.07042,-0.29458 1.82411,-1.17421 1.94267,-2.2673 0.0516,-0.47596 -0.0389,-0.9505 -0.27123,-1.42114 -0.38749,-0.78513 -1.15458,-1.31863 -2.03753,-1.41709 -0.3068,-0.0342 -4.64884,-0.0342 -4.95564,0 -1.60535,0.17901 -2.66787,1.75853 -2.22077,3.30136 0.12107,0.4178 0.31935,0.75712 0.6318,1.08124 0.30198,0.31325 0.64872,0.53404 1.05052,0.66892 0.38077,0.12782 0.33636,0.12608 3.08662,0.12142 l 2.54428,-0.004 z m -3.21965,-0.58783 c -0.48283,-0.16463 -0.82019,-0.62092 -0.82019,-1.1093 0,-0.19964 0.11514,-0.35617 0.29971,-0.40743 0.11655,-0.0324 1.67588,-0.0324 1.79244,0 0.26016,0.0723 0.3551,0.31273 0.26382,0.66822 -0.10559,0.41121 -0.40802,0.73326 -0.80321,0.85532 -0.2132,0.0659 -0.52805,0.0629 -0.73257,-0.007 z m 0.55052,-0.35761 c 0.29901,-0.0485 0.57739,-0.3489 0.61463,-0.66327 l 0.0144,-0.12169 h -0.80382 -0.80382 l 0.0144,0.12169 c 0.0288,0.24332 0.20328,0.48568 0.43456,0.60367 0.0985,0.0503 0.30766,0.094 0.39002,0.0817 0.0258,-0.004 0.0886,-0.0138 0.13961,-0.0221 z m -3.21663,-1.20505 c -0.34924,-0.089 -0.63345,-0.37519 -0.72384,-0.72894 -0.17437,-0.68236 0.42857,-1.34209 1.11844,-1.22379 0.98293,0.16855 1.15009,1.47824 0.24202,1.89622 -0.11348,0.0522 -0.17788,0.0651 -0.3501,0.0699 -0.11608,0.003 -0.24501,-0.003 -0.28652,-0.0134 z m 0.47411,-0.42098 c 0.1411,-0.0643 0.23588,-0.15492 0.30303,-0.28966 0.14532,-0.29163 0.0175,-0.65814 -0.28058,-0.80422 -0.13242,-0.0649 -0.38858,-0.0625 -0.51489,0.005 -0.44549,0.23752 -0.44959,0.85159 -0.007,1.07206 0.15021,0.0749 0.35717,0.0819 0.4996,0.017 z m 5.14728,0.42657 c -0.1112,-0.0235 -0.34043,-0.14255 -0.43746,-0.2272 -0.28965,-0.25271 -0.40576,-0.67668 -0.28891,-1.05498 0.14217,-0.46031 0.62926,-0.75755 1.1071,-0.67561 0.57471,0.0985 0.94796,0.66544 0.80542,1.22326 -0.0761,0.29785 -0.259,0.51933 -0.54518,0.66022 -0.1288,0.0634 -0.17802,0.0742 -0.36563,0.08 -0.11924,0.004 -0.24314,10e-4 -0.27534,-0.006 z m 0.48779,-0.44352 c 0.44243,-0.22048 0.43834,-0.83455 -0.007,-1.07207 -0.12631,-0.0673 -0.38247,-0.0698 -0.51488,-0.005 -0.21092,0.10338 -0.34157,0.3188 -0.34052,0.56146 0.002,0.4266 0.4743,0.70893 0.86256,0.51546 z m -3.80706,-3.39702 c -0.0807,-0.0807 -0.0765,-0.18508 0.011,-0.27254 l 0.0685,-0.0685 h 0.6602 0.66019 l 0.0685,0.0685 c 0.0875,0.0875 0.0917,0.19186 0.011,0.27254 l -0.0576,0.0576 h -0.68217 -0.68217 z m 0.48811,-0.54394 c -0.0719,-0.0156 -0.14703,-0.11773 -0.14703,-0.20002 0,-0.0412 0.0228,-0.0911 0.0576,-0.12581 0.0548,-0.0548 0.0713,-0.0576 0.34109,-0.0576 0.26976,0 0.28632,0.003 0.34108,0.0576 0.0743,0.0743 0.0749,0.1776 0.002,0.26288 -0.0539,0.0627 -0.065,0.0653 -0.29898,0.0697 -0.13364,0.003 -0.26652,-5.3e-4 -0.29528,-0.007 z m -4.21447,-2.45761 c 0.096,-0.096 0.0759,-0.24791 -0.0408,-0.30827 -0.12722,-0.0658 -0.2615,0.002 -0.29037,0.14619 -0.011,0.0549 -2.7e-4,0.0868 0.0487,0.14502 0.0806,0.0958 0.19673,0.10278 0.28245,0.0171 z m 9.21463,-0.0171 c 0.049,-0.0582 0.0597,-0.0901 0.0487,-0.14502 -0.0289,-0.14437 -0.16315,-0.21197 -0.29037,-0.14619 -0.17798,0.092 -0.10477,0.36583 0.0978,0.36583 0.0623,0 0.0956,-0.0173 0.14384,-0.0746 z"
       id="path1" /></g></svg>
